<?xml version="1.0" encoding="UTF-8" standalone="no"?>
<!DOCTYPE svg PUBLIC "-//W3C//DTD SVG 1.1//EN"
"http://www.w3.org/Graphics/SVG/1.1/DTD/svg11.dtd">
<!-- Generated by graphviz version 2.38.0 (20140413.2041)
-->
<!-- Title: %3 Pages: 1 -->
<svg width="517pt" height="1001pt"
viewBox="0.00 0.00 517.04 1001.00" xmlns="http://www.w3.org/2000/svg" xmlns:xlink="http://www.w3.org/1999/xlink">
<g id="graph0" class="graph" transform="scale(1 1) rotate(0) translate(4 997)">
<title>%3</title>
<polygon fill="white" stroke="none" points="-4,4 -4,-997 513.035,-997 513.035,4 -4,4"/>
<!-- 1990782151200 -->
<g id="node1" class="node"><title>1990782151200</title>
<ellipse fill="#28a745" fill-opacity="0.501961" stroke="#28a745" stroke-opacity="0.501961" cx="355.144" cy="-540" rx="69.5877" ry="18"/>
<text text-anchor="middle" x="355.144" y="-536.3" font-family="Times New Roman,serif" font-size="14.00">adjust_pop_dist</text>
</g>
<!-- 1990782151312 -->
<g id="node14" class="node"><title>1990782151312</title>
<ellipse fill="#ff5131" fill-opacity="0.501961" stroke="#ff5131" stroke-opacity="0.501961" cx="277.144" cy="-453" rx="112.38" ry="18"/>
<text text-anchor="middle" x="277.144" y="-449.3" font-family="Times New Roman,serif" font-size="14.00">merge_input_and_rate_card</text>
</g>
<!-- 1990782151200&#45;&gt;1990782151312 -->
<g id="edge16" class="edge"><title>1990782151200&#45;&gt;1990782151312</title>
<path fill="none" stroke="black" d="M339.733,-522.207C328.27,-509.715 312.452,-492.477 299.586,-478.457"/>
<polygon fill="black" stroke="black" points="302.129,-476.051 292.789,-471.049 296.971,-480.784 302.129,-476.051"/>
<text text-anchor="middle" x="349.644" y="-492.8" font-family="Times New Roman,serif" font-size="14.00">input_data</text>
</g>
<!-- 1990782151928 -->
<g id="node2" class="node"><title>1990782151928</title>
<ellipse fill="#28a745" fill-opacity="0.501961" stroke="#28a745" stroke-opacity="0.501961" cx="72.1436" cy="-366" rx="72.2875" ry="18"/>
<text text-anchor="middle" x="72.1436" y="-362.3" font-family="Times New Roman,serif" font-size="14.00">get_cust_coords</text>
</g>
<!-- 1990782152096 -->
<g id="node3" class="node"><title>1990782152096</title>
<ellipse fill="#ff5131" fill-opacity="0.501961" stroke="#ff5131" stroke-opacity="0.501961" cx="118.144" cy="-279" rx="90.1842" ry="18"/>
<text text-anchor="middle" x="118.144" y="-275.3" font-family="Times New Roman,serif" font-size="14.00">get_connected_entitiy</text>
</g>
<!-- 1990782151928&#45;&gt;1990782152096 -->
<g id="edge14" class="edge"><title>1990782151928&#45;&gt;1990782152096</title>
<path fill="none" stroke="black" d="M77.7643,-347.834C81.3046,-337.946 86.3046,-325.446 92.1436,-315 93.988,-311.7 96.1021,-308.356 98.3106,-305.111"/>
<polygon fill="black" stroke="black" points="101.257,-307.009 104.257,-296.847 95.5749,-302.92 101.257,-307.009"/>
<text text-anchor="middle" x="127.644" y="-318.8" font-family="Times New Roman,serif" font-size="14.00">cust_coords</text>
</g>
<!-- 1990782152040 -->
<g id="node10" class="node"><title>1990782152040</title>
<ellipse fill="#ff5131" fill-opacity="0.501961" stroke="#ff5131" stroke-opacity="0.501961" cx="130.144" cy="-192" rx="107.482" ry="18"/>
<text text-anchor="middle" x="130.144" y="-188.3" font-family="Times New Roman,serif" font-size="14.00">aggregate_connected_cust</text>
</g>
<!-- 1990782152096&#45;&gt;1990782152040 -->
<g id="edge10" class="edge"><title>1990782152096&#45;&gt;1990782152040</title>
<path fill="none" stroke="black" d="M117.288,-260.766C117.107,-251.077 117.376,-238.796 119.144,-228 119.582,-225.323 120.179,-222.567 120.869,-219.834"/>
<polygon fill="black" stroke="black" points="124.236,-220.79 123.666,-210.21 117.514,-218.837 124.236,-220.79"/>
<text text-anchor="middle" x="187.144" y="-231.8" font-family="Times New Roman,serif" font-size="14.00">connected_custs_match</text>
</g>
<!-- 1990782152320 -->
<g id="node4" class="node"><title>1990782152320</title>
<ellipse fill="#ff5131" fill-opacity="0.501961" stroke="#ff5131" stroke-opacity="0.501961" cx="223.144" cy="-105" rx="94.7833" ry="18"/>
<text text-anchor="middle" x="223.144" y="-101.3" font-family="Times New Roman,serif" font-size="14.00">merge_input_aggregate</text>
</g>
<!-- 1990782706856 -->
<g id="node11" class="node"><title>1990782706856</title>
<ellipse fill="#ff5131" fill-opacity="0.501961" stroke="#ff5131" stroke-opacity="0.501961" cx="223.144" cy="-18" rx="53.0913" ry="18"/>
<text text-anchor="middle" x="223.144" y="-14.3" font-family="Times New Roman,serif" font-size="14.00">debug_json</text>
</g>
<!-- 1990782152320&#45;&gt;1990782706856 -->
<g id="edge13" class="edge"><title>1990782152320&#45;&gt;1990782706856</title>
<path fill="none" stroke="black" d="M223.144,-86.799C223.144,-75.1626 223.144,-59.5479 223.144,-46.2368"/>
<polygon fill="black" stroke="black" points="226.644,-46.1754 223.144,-36.1754 219.644,-46.1755 226.644,-46.1754"/>
<text text-anchor="middle" x="246.144" y="-57.8" font-family="Times New Roman,serif" font-size="14.00">json_str</text>
</g>
<!-- 1990782706968 -->
<g id="node5" class="node"><title>1990782706968</title>
<ellipse fill="#28a745" fill-opacity="0.501961" stroke="#28a745" stroke-opacity="0.501961" cx="248.144" cy="-627" rx="53.0913" ry="18"/>
<text text-anchor="middle" x="248.144" y="-623.3" font-family="Times New Roman,serif" font-size="14.00">debug_json</text>
</g>
<!-- 1990782150472 -->
<g id="node6" class="node"><title>1990782150472</title>
<ellipse fill="#28a745" fill-opacity="0.501961" stroke="#28a745" stroke-opacity="0.501961" cx="282.144" cy="-888" rx="83.3857" ry="18"/>
<text text-anchor="middle" x="282.144" y="-884.3" font-family="Times New Roman,serif" font-size="14.00">pandas_llp_checker</text>
</g>
<!-- 1990782150416 -->
<g id="node12" class="node"><title>1990782150416</title>
<ellipse fill="#28a745" fill-opacity="0.501961" stroke="#28a745" stroke-opacity="0.501961" cx="282.144" cy="-801" rx="109.681" ry="18"/>
<text text-anchor="middle" x="282.144" y="-797.3" font-family="Times New Roman,serif" font-size="14.00">pandas_convert_bw_to_lle</text>
</g>
<!-- 1990782150472&#45;&gt;1990782150416 -->
<g id="edge8" class="edge"><title>1990782150472&#45;&gt;1990782150416</title>
<path fill="none" stroke="black" d="M282.144,-869.799C282.144,-858.163 282.144,-842.548 282.144,-829.237"/>
<polygon fill="black" stroke="black" points="285.644,-829.175 282.144,-819.175 278.644,-829.175 285.644,-829.175"/>
<text text-anchor="middle" x="302.144" y="-840.8" font-family="Times New Roman,serif" font-size="14.00">dframe</text>
</g>
<!-- 1990782150024 -->
<g id="node7" class="node"><title>1990782150024</title>
<ellipse fill="#28a745" fill-opacity="0.501961" stroke="#28a745" stroke-opacity="0.501961" cx="282.144" cy="-975" rx="48.9926" ry="18"/>
<text text-anchor="middle" x="282.144" y="-971.3" font-family="Times New Roman,serif" font-size="14.00">input_data</text>
</g>
<!-- 1990782150024&#45;&gt;1990782150472 -->
<g id="edge11" class="edge"><title>1990782150024&#45;&gt;1990782150472</title>
<path fill="none" stroke="black" d="M282.144,-956.799C282.144,-945.163 282.144,-929.548 282.144,-916.237"/>
<polygon fill="black" stroke="black" points="285.644,-916.175 282.144,-906.175 278.644,-916.175 285.644,-916.175"/>
<text text-anchor="middle" x="302.144" y="-927.8" font-family="Times New Roman,serif" font-size="14.00">dframe</text>
</g>
<!-- 1990782150920 -->
<g id="node8" class="node"><title>1990782150920</title>
<ellipse fill="#28a745" fill-opacity="0.501961" stroke="#28a745" stroke-opacity="0.501961" cx="414.144" cy="-627" rx="94.7833" ry="18"/>
<text text-anchor="middle" x="414.144" y="-623.3" font-family="Times New Roman,serif" font-size="14.00">convert_metres_to_km</text>
</g>
<!-- 1990782150920&#45;&gt;1990782151200 -->
<g id="edge4" class="edge"><title>1990782150920&#45;&gt;1990782151200</title>
<path fill="none" stroke="black" d="M402.204,-608.799C393.752,-596.622 382.276,-580.089 372.773,-566.398"/>
<polygon fill="black" stroke="black" points="375.441,-564.105 366.864,-557.885 369.691,-568.096 375.441,-564.105"/>
<text text-anchor="middle" x="417.644" y="-579.8" font-family="Times New Roman,serif" font-size="14.00">input_data</text>
</g>
<!-- 1990782151592 -->
<g id="node9" class="node"><title>1990782151592</title>
<ellipse fill="#ff5131" fill-opacity="0.501961" stroke="#ff5131" stroke-opacity="0.501961" cx="277.144" cy="-366" rx="114.28" ry="18"/>
<text text-anchor="middle" x="277.144" y="-362.3" font-family="Times New Roman,serif" font-size="14.00">adjust_bw_arc_and_MACD</text>
</g>
<!-- 1990782151592&#45;&gt;1990782152096 -->
<g id="edge7" class="edge"><title>1990782151592&#45;&gt;1990782152096</title>
<path fill="none" stroke="black" d="M241.958,-348.824C229.868,-343.083 216.317,-336.444 204.144,-330 187.301,-321.084 169,-310.565 153.627,-301.481"/>
<polygon fill="black" stroke="black" points="155.331,-298.423 144.947,-296.321 151.755,-304.44 155.331,-298.423"/>
<text text-anchor="middle" x="233.644" y="-318.8" font-family="Times New Roman,serif" font-size="14.00">input_data</text>
</g>
<!-- 1990782151592&#45;&gt;1990782152320 -->
<g id="edge9" class="edge"><title>1990782151592&#45;&gt;1990782152320</title>
<path fill="none" stroke="black" d="M274.665,-347.826C269.758,-314.309 258.234,-237.869 246.144,-174 243.355,-159.269 243.844,-155.237 239.144,-141 238.221,-138.205 237.141,-135.334 235.987,-132.498"/>
<polygon fill="black" stroke="black" points="239.108,-130.9 231.891,-123.144 232.696,-133.708 239.108,-130.9"/>
<text text-anchor="middle" x="287.644" y="-231.8" font-family="Times New Roman,serif" font-size="14.00">input_data</text>
</g>
<!-- 1990782152040&#45;&gt;1990782152320 -->
<g id="edge3" class="edge"><title>1990782152040&#45;&gt;1990782152320</title>
<path fill="none" stroke="black" d="M148.517,-174.207C162.401,-161.517 181.644,-143.93 197.112,-129.793"/>
<polygon fill="black" stroke="black" points="199.788,-132.088 204.808,-122.758 195.065,-126.921 199.788,-132.088"/>
<text text-anchor="middle" x="208.644" y="-144.8" font-family="Times New Roman,serif" font-size="14.00">aggregate</text>
</g>
<!-- 1990782150640 -->
<g id="node13" class="node"><title>1990782150640</title>
<ellipse fill="#28a745" fill-opacity="0.501961" stroke="#28a745" stroke-opacity="0.501961" cx="282.144" cy="-714" rx="130.777" ry="18"/>
<text text-anchor="middle" x="282.144" y="-710.3" font-family="Times New Roman,serif" font-size="14.00">pandas_round_bw_to_nearest_2</text>
</g>
<!-- 1990782150416&#45;&gt;1990782150640 -->
<g id="edge1" class="edge"><title>1990782150416&#45;&gt;1990782150640</title>
<path fill="none" stroke="black" d="M282.144,-782.799C282.144,-771.163 282.144,-755.548 282.144,-742.237"/>
<polygon fill="black" stroke="black" points="285.644,-742.175 282.144,-732.175 278.644,-742.175 285.644,-742.175"/>
<text text-anchor="middle" x="302.144" y="-753.8" font-family="Times New Roman,serif" font-size="14.00">dframe</text>
</g>
<!-- 1990782150640&#45;&gt;1990782706968 -->
<g id="edge12" class="edge"><title>1990782150640&#45;&gt;1990782706968</title>
<path fill="none" stroke="black" d="M275.263,-695.799C270.485,-683.854 264.03,-667.717 258.617,-654.183"/>
<polygon fill="black" stroke="black" points="261.861,-652.87 254.898,-644.885 255.362,-655.47 261.861,-652.87"/>
<text text-anchor="middle" x="290.144" y="-666.8" font-family="Times New Roman,serif" font-size="14.00">json_str</text>
</g>
<!-- 1990782150640&#45;&gt;1990782150920 -->
<g id="edge5" class="edge"><title>1990782150640&#45;&gt;1990782150920</title>
<path fill="none" stroke="black" d="M308.223,-696.207C328.785,-682.966 357.628,-664.393 380.024,-649.971"/>
<polygon fill="black" stroke="black" points="382.055,-652.826 388.568,-644.469 378.265,-646.941 382.055,-652.826"/>
<text text-anchor="middle" x="384.644" y="-666.8" font-family="Times New Roman,serif" font-size="14.00">input_data</text>
</g>
<!-- 1990782151312&#45;&gt;1990782151592 -->
<g id="edge6" class="edge"><title>1990782151312&#45;&gt;1990782151592</title>
<path fill="none" stroke="black" d="M277.144,-434.799C277.144,-423.163 277.144,-407.548 277.144,-394.237"/>
<polygon fill="black" stroke="black" points="280.644,-394.175 277.144,-384.175 273.644,-394.175 280.644,-394.175"/>
<text text-anchor="middle" x="306.644" y="-405.8" font-family="Times New Roman,serif" font-size="14.00">input_data</text>
</g>
<!-- 1990782150584 -->
<g id="node15" class="node"><title>1990782150584</title>
<ellipse fill="#28a745" fill-opacity="0.501961" stroke="#28a745" stroke-opacity="0.501961" cx="150.144" cy="-627" rx="27" ry="18"/>
<text text-anchor="middle" x="150.144" y="-623.3" font-family="Times New Roman,serif" font-size="14.00">fail</text>
</g>
<!-- 1990782151480 -->
<g id="node16" class="node"><title>1990782151480</title>
<ellipse fill="#eb0000" fill-opacity="0.501961" stroke="#eb0000" stroke-opacity="0.501961" cx="174.144" cy="-540" rx="81.4863" ry="18"/>
<text text-anchor="middle" x="174.144" y="-536.3" font-family="Times New Roman,serif" font-size="14.00">load_arc_rate_card</text>
</g>
<!-- 1990782150584&#45;&gt;1990782151480 -->
<g id="edge15" class="edge"><title>1990782150584&#45;&gt;1990782151480</title>
<path fill="none" stroke="black" d="M154.885,-609.207C158.216,-597.409 162.743,-581.378 166.57,-567.822"/>
<polygon fill="black" stroke="black" points="169.981,-568.624 169.33,-558.049 163.244,-566.722 169.981,-568.624"/>
<text text-anchor="middle" x="171.644" y="-579.8" font-family="Times New Roman,serif" font-size="14.00">fail</text>
</g>
<!-- 1990782151480&#45;&gt;1990782151312 -->
<g id="edge2" class="edge"><title>1990782151480&#45;&gt;1990782151312</title>
<path fill="none" stroke="black" d="M194.493,-522.207C210.011,-509.401 231.573,-491.607 248.783,-477.404"/>
<polygon fill="black" stroke="black" points="251.351,-479.823 256.836,-470.758 246.896,-474.424 251.351,-479.823"/>
<text text-anchor="middle" x="257.644" y="-492.8" font-family="Times New Roman,serif" font-size="14.00">rate_card</text>
</g>
</g>
</svg>
